<?xml version="1.0" encoding="utf-8"?>
<!DOCTYPE svg PUBLIC "-//W3C//DTD SVG 1.1//EN" "http://www.w3.org/Graphics/SVG/1.1/DTD/svg11.dtd">
<svg version="1.1" id="图形" xmlns="http://www.w3.org/2000/svg" xmlns:xlink="http://www.w3.org/1999/xlink" x="0px" y="0px" width="1024px" height="1024px" viewBox="0 0 1024 1024" enable-background="new 0 0 1024 1024" xml:space="preserve">
  <path fill="#c7ccd0" d="M233.778 682.382c4.719-4.22 11.714-11.174 21.099-22.284 13.874-16.423 29.387-37.656 44.861-61.405 30.009-46.055 48.741-84.212 54.135-98.747-1.27-5.075-4.854-11.448-11.496-22.598-12.505-20.992-29.63-49.741-29.63-90.518 0-25.987 12.096-54.066 39.219-91.043 17.721-24.158 41.286-51.342 68.149-78.612 26.119-26.515 53.359-50.935 76.702-68.762 36.802-28.105 63.451-40.097 89.108-40.097 36.072 0 64.861 15.349 87.993 27.682 12.694 6.768 24.768 13.205 33.596 14.651 12.498-4.425 48.54-22.768 102.228-61.148 45.318-32.397 73.236-57.52 85.817-70.75-4.181-22.79-17.587-46.155-38.186-65.94-12.037-11.562-25.795-21.099-39.787-27.582-12.117-5.614-24.097-8.706-33.731-8.706-55.427 0-124.538 23.315-199.861 67.426-73.589 43.095-149.913 104.029-220.721 176.215-69.597 70.951-128.733 147.415-171.016 221.124-21.044 36.685-37.238 71.619-48.132 103.833-10.554 31.207-15.906 59.109-15.906 82.931 0 7.975 3.646 18.727 10.266 30.276 7.857 13.708 19.619 28.202 34.012 41.913 13.543 12.901 29.149 24.766 43.943 33.408C223.528 677.789 229.364 680.571 233.778 682.382M241.316 749.256c-52.088 0-177.097-94.596-177.097-181.205 0-253.175 435.762-715.528 719.636-715.528 78.135 0 177.102 83.939 177.102 181.222 0 33.301-203.143 181.205-250.023 181.205-48.18 0-83.343-42.634-125.009-42.634-41.671 0-209.179 167.886-209.179 214.513 0 46.645 41.666 69.288 41.666 117.256C418.413 538.733 293.399 749.256 241.316 749.256L241.316 749.256z" transform="translate(0, 812) scale(1, -1)"/>
</svg>
